HIERARCHY
ROOT Hips
{
	OFFSET	0.00	0.00	0.00
	CHANNELS 6 Xposition Yposition Zposition Zrotation Xrotation Yrotation
	JOINT LeftUpLeg
	{
		OFFSET	 0.126116	-0.065224	 0.014019
		CHANNELS 3 Zrotation Xrotation Yrotation
		JOINT LeftLeg
		{
			OFFSET	 0.000000	 0.569914	 0.000000
			CHANNELS 3 Zrotation Xrotation Yrotation
			JOINT LeftFoot
			{
				OFFSET	 0.000000	 0.544423	 0.000000
				CHANNELS 3 Zrotation Xrotation Yrotation
				JOINT LeftToeBase
				{
					OFFSET	 0.000000	 0.207117	 0.000000
					CHANNELS 3 Zrotation Xrotation Yrotation
					End Site
					{
						OFFSET	 0.000000	 0.207117	 0.000000
					}
				}
			}
		}
	}
	JOINT RightUpLeg
	{
		OFFSET	-0.124023	-0.065224	 0.008373
		CHANNELS 3 Zrotation Xrotation Yrotation
		JOINT RightLeg
		{
			OFFSET	 0.000000	 0.570047	 0.000000
			CHANNELS 3 Zrotation Xrotation Yrotation
			JOINT RightFoot
			{
				OFFSET	 0.000000	 0.544354	 0.000000
				CHANNELS 3 Zrotation Xrotation Yrotation
				JOINT RightToeBase
				{
					OFFSET	 0.000000	 0.207540	 0.000000
					CHANNELS 3 Zrotation Xrotation Yrotation
					End Site
					{
						OFFSET	 0.000000	 0.207540	 0.000000
					}
				}
			}
		}
	}
	JOINT Spine
	{
		OFFSET	 0.000184	 0.117403	 0.007763
		CHANNELS 3 Zrotation Xrotation Yrotation
		JOINT Spine1
		{
			OFFSET	 0.000000	 0.137269	 0.000000
			CHANNELS 3 Zrotation Xrotation Yrotation
			JOINT Spine2
			{
				OFFSET	 0.000000	 0.156879	 0.000000
				CHANNELS 3 Zrotation Xrotation Yrotation
				JOINT LeftShoulder
				{
					OFFSET	 0.080501	 0.160143	 0.002496
					CHANNELS 3 Zrotation Xrotation Yrotation
					JOINT LeftArm
					{
						OFFSET	 0.000000	 0.164363	 0.000000
						CHANNELS 3 Zrotation Xrotation Yrotation
						JOINT LeftForeArm
						{
							OFFSET	 0.000000	 0.364576	 0.000000
							CHANNELS 3 Zrotation Xrotation Yrotation
							JOINT LeftHand
							{
								OFFSET	 0.000000	 0.360812	 0.000000
								CHANNELS 3 Zrotation Xrotation Yrotation
								JOINT LeftHandIndex1
								{
									OFFSET	 0.000000	 0.086006	 0.000000
									CHANNELS 3 Zrotation Xrotation Yrotation
									JOINT LeftHandIndex2
									{
										OFFSET	 0.000000	 0.047237	 0.000000
										CHANNELS 3 Zrotation Xrotation Yrotation
										JOINT LeftHandIndex3
										{
											OFFSET	-0.004284	 0.038165	 0.000551
											CHANNELS 3 Zrotation Xrotation Yrotation
											End Site
											{
												OFFSET	-0.004284	 0.038165	 0.000551
											}
										}
									}
								}
							}
						}
					}
				}
				JOINT Neck
				{
					OFFSET	 0.000000	 0.176489	 0.000000
					CHANNELS 3 Zrotation Xrotation Yrotation
					JOINT Head
					{
						OFFSET	 0.000000	 0.077941	 0.001747
						CHANNELS 3 Zrotation Xrotation Yrotation
						End Site
						{
							OFFSET	 0.000000	 0.077941	 0.001747
						}
					}
				}
				JOINT RightShoulder
				{
					OFFSET	-0.080363	 0.159706	-0.000306
					CHANNELS 3 Zrotation Xrotation Yrotation
					JOINT RightArm
					{
						OFFSET	 0.000000	 0.164196	 0.000000
						CHANNELS 3 Zrotation Xrotation Yrotation
						JOINT RightForeArm
						{
							OFFSET	 0.000000	 0.365611	 0.000000
							CHANNELS 3 Zrotation Xrotation Yrotation
							JOINT RightHand
							{
								OFFSET	 0.000000	 0.360648	 0.000000
								CHANNELS 3 Zrotation Xrotation Yrotation
								JOINT RightHandIndex1
								{
									OFFSET	 0.000000	 0.069977	 0.000000
									CHANNELS 3 Zrotation Xrotation Yrotation
									JOINT RightHandIndex2
									{
										OFFSET	 0.000000	 0.052305	 0.000000
										CHANNELS 3 Zrotation Xrotation Yrotation
										JOINT RightHandIndex3
										{
											OFFSET	 0.009002	 0.042196	 0.000782
											CHANNELS 3 Zrotation Xrotation Yrotation
											End Site
											{
												OFFSET	 0.009002	 0.042196	 0.000782
											}
										}
									}
								}
							}
						}
					}
				}
			}
		}
	}
}
MOTION
Frames:    7
Frame Time: 0.03333334
-0.006176	 1.233141	 0.011236	 1.798797	 0.380581	 172.202600	-173.574300	 18.429250	 1.831934	 9.239223	-31.152700	 4.642695	-21.468150	 74.291730	 12.863030	 1.161945	 26.688160	-2.659626	-172.265200	 11.032330	-10.009120	-2.667538	-31.572930	 7.702580	 4.816480	 80.187450	-5.097695	-1.288916	 28.371460	 2.710485	 2.251359	 6.336431	 2.910125	-0.584785	 3.713065	 1.659975	 2.608258	-3.105894	-1.697381	-113.162200	 6.488564	 92.938520	 16.646740	 52.597060	 7.736943	 18.912220	-0.960906	 0.076234	 8.292112	 6.380461	 16.838430	 0.587017	 8.572125	-0.355612	-5.949295	 13.595850	 1.519911	 4.987275	-3.484707	-0.334031	 3.184886	-6.826370	 0.876448	-1.247313	-5.465572	 2.939649	 123.436900	 10.377200	-96.381110	-7.386891	 45.535610	-2.267443	-7.819018	-0.306705	 0.037593	 3.567523	-0.991518	-17.026470	-2.317088	 4.874480	 0.895888	 12.535980	 22.869690	-5.152487	-8.500450	 13.078120	-0.523978
-0.006260	 1.233095	 0.011382	 1.776615	 0.335625	 171.990400	-173.520100	 18.415460	 1.568086	 9.254181	-31.133910	 4.592316	-21.745510	 74.248850	 13.149540	 1.161759	 26.685640	-2.659552	-172.246000	 11.158090	-10.146160	-2.674475	-31.666090	 7.612255	 4.398443	 80.210940	-4.631069	-1.288738	 28.369120	 2.710410	 2.306347	 6.320730	 2.889494	-0.657323	 3.688884	 1.693602	 2.649979	-3.130995	-1.652642	-113.081100	 6.499973	 92.947050	 16.731910	 52.713990	 7.768770	 18.790990	-0.955039	 0.074169	 8.420746	 6.321702	 16.898640	 0.650009	 8.376690	-0.355193	-5.948493	 13.639760	 1.524619	 4.990452	-3.414922	-0.332347	 3.182584	-6.828083	 0.889706	-1.249500	-5.504518	 3.041149	 123.382500	 10.386050	-96.375430	-7.368541	 45.569000	-2.218575	-7.852175	-0.308134	 0.037462	 3.436813	-1.069191	-16.882160	-2.339863	 4.945817	 0.894983	 12.549640	 23.057870	-5.197957	-8.501801	 13.232150	-0.533702
-0.006361	 1.233042	 0.011565	 1.750065	 0.281891	 171.734700	-173.454600	 18.398490	 1.290215	 9.247972	-31.117070	 4.485060	-22.076790	 74.195760	 13.492280	 1.161535	 26.682600	-2.659463	-172.221300	 11.308910	-10.311320	-2.682652	-31.776150	 7.503435	 3.887617	 80.236980	-4.063045	-1.288523	 28.366300	 2.710319	 2.372988	 6.302316	 2.857987	-0.732787	 3.662012	 1.727386	 2.694906	-3.162408	-1.598762	-112.983300	 6.513733	 92.957310	 16.837760	 52.858670	 7.804901	 18.642010	-0.947671	 0.071721	 8.577479	 6.244937	 16.958270	 0.725925	 8.141038	-0.354398	-5.947532	 13.692690	 1.530295	 4.994280	-3.330795	-0.330323	 3.179809	-6.830149	 0.905688	-1.252053	-5.551317	 3.163452	 123.316900	 10.396730	-96.368550	-7.355818	 45.605890	-2.152804	-7.888424	-0.309503	 0.037191	 3.280318	-1.163839	-16.721770	-2.367321	 5.031816	 0.893930	 12.566350	 23.284750	-5.252932	-8.503396	 13.417860	-0.545429
-0.006485	 1.232981	 0.011796	 1.717795	 0.216544	 171.421700	-173.374000	 18.376930	 0.950518	 9.239785	-31.094760	 4.353680	-22.475030	 74.128940	 13.905020	 1.161260	 26.678890	-2.659354	-172.189100	 11.492010	-10.513050	-2.692282	-31.906550	 7.370609	 3.256490	 80.264840	-3.364332	-1.288261	 28.362850	 2.710208	 2.455013	 6.279100	 2.810543	-0.808005	 3.634197	 1.759755	 2.742093	-3.202714	-1.533085	-112.863800	 6.530566	 92.969840	 16.972610	 53.040620	 7.845608	 18.456110	-0.938552	 0.068583	 8.771172	 6.142869	 17.013000	 0.818676	 7.852960	-0.353000	-5.946363	 13.757380	 1.537233	 4.998954	-3.227978	-0.327856	 3.176419	-6.832675	 0.925220	-1.255020	-5.608704	 3.313055	 123.236800	 10.409760	-96.360180	-7.354313	 45.646210	-2.062441	-7.925987	-0.310954	 0.037056	 3.089215	-1.280974	-16.544380	-2.400882	 5.136921	 0.892699	 12.587130	 23.562080	-5.320362	-8.505294	 13.644860	-0.559769
-0.006646	 1.232907	 0.012109	 1.676413	 0.132233	 171.016800	-173.269300	 18.348550	 0.511863	 9.228445	-31.063940	 4.183576	-22.978570	 74.039860	 14.427960	 1.160906	 26.674100	-2.659214	-172.144100	 11.727260	-10.773550	-2.704240	-32.069330	 7.199314	 2.432216	 80.295070	-2.456331	-1.287922	 28.358400	 2.710065	 2.561676	 6.249708	 2.735299	-0.878274	 3.603335	 1.787315	 2.790836	-3.257028	-1.448417	-112.709400	 6.552359	 92.985950	 17.155900	 53.283580	 7.891225	 18.209350	-0.926419	 0.064615	 9.024970	 5.998407	 17.055470	 0.938396	 7.480865	-0.350499	-5.944865	 13.840910	 1.546191	 5.004981	-3.095215	-0.324684	 3.172042	-6.835938	 0.950439	-1.258634	-5.682659	 3.506204	 123.133300	 10.426570	-96.349280	-7.373682	 45.690950	-1.930072	-7.965002	-0.312528	 0.036814	 2.843035	-1.433909	-16.345380	-2.444223	 5.272639	 0.891201	 12.614570	 23.920250	-5.407830	-8.507661	 13.938020	-0.578297
-0.006799	 1.232843	 0.012418	 1.637516	 0.052906	 170.632600	-173.169500	 18.320550	 0.096246	 9.216947	-31.032630	 4.022044	-23.445410	 73.952700	 14.914010	 1.160571	 26.669570	-2.659081	-172.097900	 11.948220	-11.020210	-2.715066	-32.217610	 7.037277	 1.641934	 80.317750	-1.590273	-1.287601	 28.354170	 2.709929	 2.663536	 6.221483	 2.649794	-0.918446	 3.581837	 1.799261	 2.825027	-3.311698	-1.368464	-112.563300	 6.573027	 93.001150	 17.337250	 53.520920	 7.928882	 17.971210	-0.914776	 0.060777	 9.267923	 5.849024	 17.067210	 1.051765	 7.128273	-0.347408	-5.943458	 13.920040	 1.554678	 5.010684	-2.969451	-0.321693	 3.167898	-6.839030	 0.974328	-1.261805	-5.752923	 3.689317	 123.035200	 10.442480	-96.338930	-7.413414	 45.725980	-1.789364	-7.993007	-0.313608	 0.036638	 2.610282	-1.580106	-16.186590	-2.485285	 5.401205	 0.889877	 12.641190	 24.259600	-5.491110	-8.509815	 14.215770	-0.595862
-0.006965	 1.232781	 0.012763	 1.596129	-0.031957	 170.219400	-173.061300	 18.289310	-0.351150	 9.203557	-30.996180	 3.847609	-23.939050	 73.855340	 15.429590	 1.160210	 26.664680	-2.658938	-172.044600	 12.183760	-11.285530	-2.726145	-32.370460	 6.863176	 0.778295	 80.335620	-0.648548	-1.287256	 28.349630	 2.709783	 2.774157	 6.191934	 2.543172	-0.934794	 3.565938	 1.797529	 2.849595	-3.373574	-1.282603	-112.406000	 6.595328	 93.017490	 17.544530	 53.782880	 7.960282	 17.708450	-0.901819	 0.056602	 9.532259	 5.675686	 17.050950	 1.173727	 6.748738	-0.343298	-5.941957	 14.005180	 1.563811	 5.016812	-2.834116	-0.318488	 3.163440	-6.842360	 1.000033	-1.264967	-5.828420	 3.886360	 122.929700	 10.459570	-96.327770	-7.476377	 45.756110	-1.623234	-8.017018	-0.314453	 0.036538	 2.361140	-1.738335	-16.045560	-2.529478	 5.539557	 0.888554	 12.670540	 24.624830	-5.581198	-8.512040	 14.514720	-0.614779
